<?xml version="1.0" encoding="UTF-8"?>
<svg width="300px" height="62px" viewBox="0 0 300 62" version="1.1" xmlns="http://www.w3.org/2000/svg" xmlns:xlink="http://www.w3.org/1999/xlink">
    <title>vivoice</title>
    <g id="页面-1" stroke="none" stroke-width="1" fill="none" fill-rule="evenodd">
        <g id="in-pc" transform="translate(-1480.000000, -3147.000000)" fill="#FFFFFF" fill-rule="nonzero">
            <g id="midbanner-1" transform="translate(1121.000000, 2688.000000)">
                <path d="M384.541329,521 C387.406807,521 389.638574,520.398438 391.236629,519.195312 C392.669368,518.101562 393.909238,516.324219 394.95624,513.863281 L410,479 L398.923825,479 L386.525122,510.089844 C386.139384,511.074219 385.505673,511.566406 384.623987,511.566406 C383.742301,511.566406 383.081037,511.074219 382.640194,510.089844 L370.324149,479 L359,479 L374.126418,513.863281 C375.17342,516.324219 376.41329,518.101562 377.846029,519.195312 C379.444084,520.398438 381.675851,521 384.541329,521 Z M420.423022,471.26875 C421.467654,472.24375 422.484795,472.24375 423.474447,471.26875 L428.175291,467.04375 C429.274903,466.122917 429.274903,465.120833 428.175291,464.0375 L423.474447,459.73125 C422.484795,458.75625 421.467654,458.75625 420.423022,459.73125 L415.722178,464.0375 C414.732527,465.120833 414.760017,466.122917 415.804649,467.04375 L420.423022,471.26875 Z M427,520 L427,479 L417,479 L417,520 L427,520 Z M460.541329,521 C463.406807,521 465.638574,520.398438 467.236629,519.195312 C468.669368,518.101562 469.909238,516.324219 470.95624,513.863281 L486,479 L474.923825,479 L462.525122,510.089844 C462.139384,511.074219 461.505673,511.566406 460.623987,511.566406 C459.742301,511.566406 459.081037,511.074219 458.640194,510.089844 L446.324149,479 L435,479 L450.126418,513.863281 C451.17342,516.324219 452.41329,518.101562 453.846029,519.195312 C455.444084,520.398438 457.675851,521 460.541329,521 Z M517.974533,521 C524.494058,521 529.601019,519.194656 533.295416,515.583969 C537.098472,511.863868 539,506.502545 539,499.5 C539,492.497455 537.098472,487.136132 533.295416,483.416031 C529.601019,479.805344 524.494058,478 517.974533,478 L511.943973,478 C505.478778,478 500.398981,479.805344 496.704584,483.416031 C492.901528,487.136132 491,492.497455 491,499.5 C491,506.502545 492.901528,511.863868 496.704584,515.583969 C500.398981,519.194656 505.478778,521 511.943973,521 L517.974533,521 Z M512.465875,512 C508.754698,512 505.957468,511.006369 504.074184,509.019108 C502.024728,506.866242 501,503.526539 501,499 C501,494.473461 502.024728,491.133758 504.074184,488.980892 C505.957468,486.993631 508.754698,486 512.465875,486 L517.451039,486 C525.150346,486 529,490.333333 529,499 C529,507.666667 525.150346,512 517.451039,512 L512.465875,512 Z M553.423022,471.26875 C554.467654,472.24375 555.484795,472.24375 556.474447,471.26875 L561.175291,467.04375 C562.274903,466.122917 562.274903,465.120833 561.175291,464.0375 L556.474447,459.73125 C555.484795,458.75625 554.467654,458.75625 553.423022,459.73125 L548.722178,464.0375 C547.732527,465.120833 547.760017,466.122917 548.804649,467.04375 L553.423022,471.26875 Z M560,520 L560,479 L550,479 L550,520 L560,520 Z M594.151844,521 C599.537238,521 604.15329,520.507634 608,519.522901 L608,510.742366 C603.823572,511.781807 599.592191,512.301527 595.305857,512.301527 C590.140275,512.301527 586.430947,511.426209 584.177874,509.675573 C581.650036,507.706107 580.386117,504.314249 580.386117,499.5 C580.386117,494.685751 581.677513,491.293893 584.260304,489.324427 C586.513377,487.573791 590.195228,486.698473 595.305857,486.698473 C599.262473,486.698473 603.356471,487.19084 607.587852,488.175573 L607.587852,479.477099 C604.290672,478.492366 599.866956,478 594.316703,478 C586.458424,478 580.5235,479.613868 576.511931,482.841603 C572.170644,486.342875 570,491.895674 570,499.5 C570,507.159033 572.170644,512.739186 576.511931,516.240458 C580.413594,519.413486 586.293565,521 594.151844,521 Z M640.677543,521 C647.555342,521 652.809981,520.288804 656.441459,518.866412 L656.441459,510.496183 C651.214331,512.02799 646.262316,512.793893 641.585413,512.793893 C636.138196,512.848601 632.259117,512.082697 629.948177,510.496183 C627.582214,508.909669 626.234165,506.256361 625.904031,502.53626 L658.504798,502.53626 C658.834933,500.566794 659,498.323791 659,495.807252 C659,490.500636 657.431862,486.315522 654.295585,483.251908 C650.71913,479.750636 645.299424,478 638.036468,478 C630.93858,478 625.518874,479.750636 621.777351,483.251908 C617.925784,486.862595 616,492.223919 616,499.335878 C616,506.885496 617.870761,512.356234 621.612284,515.748092 C625.463852,519.249364 631.818938,521 640.677543,521 Z M626,496 C626.383162,492.526611 627.560018,489.977591 629.530567,488.352941 C631.446378,486.784314 634.320095,486 638.151718,486 C642.092816,486 644.939164,486.840336 646.690763,488.521008 C648.332887,490.089636 649.099212,492.582633 648.989737,496 L626,496 Z" id="vivoice"></path>
            </g>
        </g>
    </g>
</svg>