<?xml version="1.0" encoding="UTF-8"?>
<svg width="307px" height="97px" viewBox="0 0 307 97" version="1.1" xmlns="http://www.w3.org/2000/svg" xmlns:xlink="http://www.w3.org/1999/xlink">
    <title>V27Series</title>
    <g id="é¡µé¢-1" stroke="none" stroke-width="1" fill="none" fill-rule="evenodd">
        <g id="in-pc" transform="translate(-1121.000000, -948.000000)" fill="#242933" fill-rule="nonzero">
            <g id="Bigbanner" transform="translate(0.000000, 80.000000)">
                <path d="M1176.485,964.62 C1181.705,964.62 1185.8,963.495 1188.77,961.245 C1191.29,959.355 1193.54,956.16 1195.52,951.66 L1195.52,951.66 L1231.7,869.85 L1212.665,869.85 L1180.805,944.1 C1179.635,946.62 1178.195,947.88 1176.485,947.88 C1174.595,947.88 1173.065,946.62 1171.895,944.1 L1171.895,944.1 L1140.305,869.85 L1121,869.85 L1157.315,951.66 C1159.205,956.16 1161.5,959.4 1164.2,961.38 C1167.17,963.54 1171.265,964.62 1176.485,964.62 Z M1324.04,963 L1324.04,947.745 L1259.915,947.745 L1259.915,943.02 C1259.915,938.61 1261.085,935.325 1263.425,933.165 C1265.765,931.005 1270.265,929.025 1276.925,927.225 L1276.925,927.225 L1297.04,921.825 C1307.03,919.125 1314.05,916.155 1318.1,912.915 C1323.59,908.505 1326.335,902.205 1326.335,894.015 C1326.335,884.925 1323.095,878.355 1316.615,874.305 C1310.225,870.255 1299.785,868.23 1285.295,868.23 C1271.795,868.23 1258.52,869.58 1245.47,872.28 L1245.47,872.28 L1245.47,887.805 C1256.81,884.925 1269.365,883.485 1283.135,883.485 C1292.765,883.485 1299.38,884.34 1302.98,886.05 C1306.49,887.67 1308.245,890.595 1308.245,894.825 C1308.245,898.515 1306.67,901.395 1303.52,903.465 C1301.18,904.995 1296.815,906.615 1290.425,908.325 L1290.425,908.325 L1267.61,913.86 C1255.37,917.19 1247.9,922.005 1245.2,928.305 C1243.22,932.535 1242.275,937.8 1242.365,944.1 L1242.365,944.1 L1242.365,963 L1324.04,963 Z M1373.99,963 L1423.67,888.75 C1426.37,885.06 1427.72,881.64 1427.72,878.49 C1427.72,875.79 1426.91,873.72 1425.29,872.28 C1423.49,870.66 1420.745,869.85 1417.055,869.85 L1417.055,869.85 L1337.54,869.85 L1337.54,885.105 L1407.065,885.105 L1353.065,963 L1373.99,963 Z" id="V27Series"></path>
            </g>
        </g>
    </g>
</svg>