<?xml version="1.0" encoding="UTF-8"?>
<svg width="388px" height="97px" viewBox="0 0 388 97" version="1.1" xmlns="http://www.w3.org/2000/svg" xmlns:xlink="http://www.w3.org/1999/xlink">
    <title>Y100</title>
    <g id="页面-1" stroke="none" stroke-width="1" fill="none" fill-rule="evenodd">
        <g id="in-pc" transform="translate(-1122.000000, -948.000000)" fill="#242933" fill-rule="nonzero">
            <g id="Bigbanner" transform="translate(0.000000, 80.000000)">
                <path d="M1184.585,963 L1184.585,927.9 C1188.275,926.37 1191.425,923.58 1194.035,919.53 L1194.035,919.53 L1229.675,869.85 L1209.56,869.85 L1180.4,911.025 C1179.14,912.825 1177.7,913.725 1176.08,913.725 C1174.46,913.725 1172.93,912.825 1171.49,911.025 L1171.49,911.025 L1142.33,869.85 L1122.215,869.85 L1157.855,919.53 C1160.465,923.49 1163.57,926.235 1167.17,927.765 L1167.17,927.765 L1167.17,963 L1184.585,963 Z M1279.76,963 L1279.76,874.98 C1279.76,870.48 1277.735,868.23 1273.685,868.23 C1271.705,868.23 1268.87,868.68 1265.18,869.58 L1265.18,869.58 L1235.615,876.735 L1235.615,891.585 L1262.48,885.915 L1262.48,963 L1279.76,963 Z M1350.635,964.62 C1367.465,964.62 1379.75,960.525 1387.49,952.335 C1394.87,944.505 1398.56,932.535 1398.56,916.425 C1398.56,900.315 1394.87,888.345 1387.49,880.515 C1379.75,872.325 1367.465,868.23 1350.635,868.23 C1333.805,868.23 1321.52,872.325 1313.78,880.515 C1306.4,888.255 1302.71,900.225 1302.71,916.425 C1302.71,932.535 1306.4,944.505 1313.78,952.335 C1321.52,960.525 1333.805,964.62 1350.635,964.62 Z M1350.635,949.095 C1339.565,949.095 1331.735,946.395 1327.145,940.995 C1322.915,936.045 1320.8,927.855 1320.8,916.425 C1320.8,904.995 1322.915,896.76 1327.145,891.72 C1331.735,886.32 1339.565,883.62 1350.635,883.62 C1361.795,883.62 1369.67,886.32 1374.26,891.72 C1378.49,896.67 1380.605,904.905 1380.605,916.425 C1380.605,927.855 1378.49,936.045 1374.26,940.995 C1369.67,946.395 1361.795,949.095 1350.635,949.095 Z M1462.01,964.62 C1478.84,964.62 1491.125,960.525 1498.865,952.335 C1506.245,944.505 1509.935,932.535 1509.935,916.425 C1509.935,900.315 1506.245,888.345 1498.865,880.515 C1491.125,872.325 1478.84,868.23 1462.01,868.23 C1445.18,868.23 1432.895,872.325 1425.155,880.515 C1417.775,888.255 1414.085,900.225 1414.085,916.425 C1414.085,932.535 1417.775,944.505 1425.155,952.335 C1432.895,960.525 1445.18,964.62 1462.01,964.62 Z M1462.01,949.095 C1450.94,949.095 1443.11,946.395 1438.52,940.995 C1434.29,936.045 1432.175,927.855 1432.175,916.425 C1432.175,904.995 1434.29,896.76 1438.52,891.72 C1443.11,886.32 1450.94,883.62 1462.01,883.62 C1473.17,883.62 1481.045,886.32 1485.635,891.72 C1489.865,896.67 1491.98,904.905 1491.98,916.425 C1491.98,927.855 1489.865,936.045 1485.635,940.995 C1481.045,946.395 1473.17,949.095 1462.01,949.095 Z" id="Y100"></path>
            </g>
        </g>
    </g>
</svg>